<svg width="20" height="20" viewBox="0 0 20 20" fill="none" xmlns="http://www.w3.org/2000/svg">
<g id="hugeicons:grid-view">
<path id="Vector" d="M1.6665 15.0001C1.6665 13.7167 1.6665 13.0751 1.95567 12.6034C2.11734 12.3392 2.339 12.1176 2.60317 11.9559C3.074 11.6667 3.7165 11.6667 4.99984 11.6667C6.28317 11.6667 6.92484 11.6667 7.3965 11.9559C7.66067 12.1176 7.88234 12.3392 8.044 12.6034C8.33317 13.0742 8.33317 13.7167 8.33317 15.0001C8.33317 16.2834 8.33317 16.9251 8.044 17.3976C7.88234 17.6609 7.66067 17.8826 7.3965 18.0442C6.92567 18.3334 6.28317 18.3334 4.99984 18.3334C3.7165 18.3334 3.07484 18.3334 2.60317 18.0442C2.3393 17.8829 2.1174 17.6612 1.95567 17.3976C1.6665 16.9251 1.6665 16.2834 1.6665 15.0001ZM11.6665 15.0001C11.6665 13.7167 11.6665 13.0751 11.9557 12.6034C12.1173 12.3392 12.339 12.1176 12.6032 11.9559C13.074 11.6667 13.7165 11.6667 14.9998 11.6667C16.2832 11.6667 16.9248 11.6667 17.3973 11.9559C17.6607 12.1176 17.8823 12.3392 18.044 12.6034C18.3332 13.0742 18.3332 13.7167 18.3332 15.0001C18.3332 16.2834 18.3332 16.9251 18.044 17.3976C17.8823 17.661 17.6607 17.8825 17.3973 18.0442C16.9248 18.3334 16.2832 18.3334 14.9998 18.3334C13.7165 18.3334 13.0748 18.3334 12.6032 18.0442C12.3393 17.8829 12.1174 17.6612 11.9557 17.3976C11.6665 16.9251 11.6665 16.2834 11.6665 15.0001ZM1.6665 5.00008C1.6665 3.71675 1.6665 3.07508 1.95567 2.60341C2.11734 2.33925 2.339 2.11758 2.60317 1.95591C3.074 1.66675 3.7165 1.66675 4.99984 1.66675C6.28317 1.66675 6.92484 1.66675 7.3965 1.95591C7.66067 2.11758 7.88234 2.33925 8.044 2.60341C8.33317 3.07425 8.33317 3.71675 8.33317 5.00008C8.33317 6.28341 8.33317 6.92508 8.044 7.39675C7.88234 7.66092 7.66067 7.88258 7.3965 8.04425C6.92567 8.33341 6.28317 8.33342 4.99984 8.33342C3.7165 8.33342 3.07484 8.33341 2.60317 8.04425C2.3392 7.88262 2.1173 7.66072 1.95567 7.39675C1.6665 6.92592 1.6665 6.28341 1.6665 5.00008ZM11.6665 5.00008C11.6665 3.71675 11.6665 3.07508 11.9557 2.60341C12.1173 2.33925 12.339 2.11758 12.6032 1.95591C13.074 1.66675 13.7165 1.66675 14.9998 1.66675C16.2832 1.66675 16.9248 1.66675 17.3973 1.95591C17.6607 2.11758 17.8823 2.33925 18.044 2.60341C18.3332 3.07425 18.3332 3.71675 18.3332 5.00008C18.3332 6.28341 18.3332 6.92508 18.044 7.39675C17.8823 7.66092 17.6607 7.88258 17.3973 8.04425C16.9248 8.33341 16.2832 8.33342 14.9998 8.33342C13.7165 8.33342 13.0748 8.33341 12.6032 8.04425C12.3392 7.88262 12.1173 7.66072 11.9557 7.39675C11.6665 6.92592 11.6665 6.28341 11.6665 5.00008Z" stroke="#0E1831" stroke-linecap="round" stroke-linejoin="round"/>
</g>
</svg>
