<svg width="56" height="56" viewBox="0 0 56 56" fill="none" xmlns="http://www.w3.org/2000/svg">
<g id="solar:check-circle-bold">
<path id="Vector" fill-rule="evenodd" clip-rule="evenodd" d="M51.3333 28C51.3333 40.887 40.887 51.3334 28 51.3334C15.113 51.3334 4.66663 40.887 4.66663 28C4.66663 15.113 15.113 4.66669 28 4.66669C40.887 4.66669 51.3333 15.113 51.3333 28ZM37.4033 20.93C37.731 21.2581 37.9151 21.7029 37.9151 22.1667C37.9151 22.6304 37.731 23.0752 37.4033 23.4034L25.7366 35.07C25.4085 35.3977 24.9637 35.5818 24.5 35.5818C24.0362 35.5818 23.5914 35.3977 23.2633 35.07L18.5966 30.4034C18.4247 30.2431 18.2868 30.0499 18.1911 29.8353C18.0955 29.6206 18.0441 29.3889 18.0399 29.1539C18.0358 28.9189 18.079 28.6855 18.167 28.4676C18.255 28.2497 18.386 28.0518 18.5522 27.8856C18.7184 27.7194 18.9163 27.5884 19.1342 27.5004C19.3521 27.4124 19.5855 27.3692 19.8205 27.3733C20.0555 27.3775 20.2872 27.4289 20.5019 27.5245C20.7165 27.6202 20.9097 27.7581 21.07 27.93L24.5 31.36L29.715 26.145L34.93 20.93C35.2581 20.6023 35.7029 20.4182 36.1666 20.4182C36.6304 20.4182 37.0752 20.6023 37.4033 20.93Z" fill="#197223"/>
</g>
</svg>
